<?xml version="1.0" standalone="no"?>
<!DOCTYPE svg PUBLIC "-//W3C//DTD SVG 20010904//EN"
 "http://www.w3.org/TR/2001/REC-SVG-20010904/DTD/svg10.dtd">
<svg version="1.0" xmlns="http://www.w3.org/2000/svg"
 width="89.000000pt" height="90.000000pt" viewBox="0 0 89.000000 90.000000"
 preserveAspectRatio="xMidYMid meet">

<g transform="translate(0.000000,90.000000) scale(0.100000,-0.100000)"
fill="#7073e5" stroke="none">
<path d="M120 586 c0 -113 4 -187 10 -191 6 -3 10 -15 10 -26 0 -46 82 -139
151 -172 76 -36 132 -42 204 -22 36 9 65 21 65 25 0 5 -22 31 -49 59 -59 60
-91 137 -91 216 0 51 -5 72 -34 135 -17 38 -86 109 -121 124 -72 31 -88 36
-115 36 l-30 0 0 -184z"/>
<path d="M561 585 c-13 -7 -34 -25 -47 -39 -52 -55 -15 -202 65 -266 22 -16
43 -30 48 -30 23 0 83 86 83 119 0 11 5 23 10 26 16 10 12 99 -6 134 -30 60
-99 85 -153 56z"/>
</g>
</svg>
